<svg xmlns="http://www.w3.org/2000/svg" width="320" height="320" viewBox="0 0 400 400" role="img" aria-labelledby="title desc">
  <title id="title">Icono de Botica LyP</title>
  <desc id="desc">Símbolo verde de botica con cruz farmacéutica, cápsula y hoja.</desc>

  <defs>
    <linearGradient id="verdeBotica" x1="60" y1="55" x2="340" y2="345" gradientUnits="userSpaceOnUse">
      <stop offset="0" stop-color="#18B981"/>
      <stop offset="1" stop-color="#087F5B"/>
    </linearGradient>
    <linearGradient id="capsula" x1="140" y1="170" x2="260" y2="230" gradientUnits="userSpaceOnUse">
      <stop offset="0" stop-color="#35D6C1"/>
      <stop offset="1" stop-color="#0D9488"/>
    </linearGradient>
  </defs>

  <rect x="35" y="35" width="330" height="330" rx="92" fill="url(#verdeBotica)"/>

  <path d="M168 92h64v76h76v64h-76v76h-64v-76H92v-64h76z" fill="#FFFFFF"/>

  <g transform="rotate(-38 200 200)">
    <rect x="130" y="176" width="140" height="48" rx="24" fill="#FFFFFF"/>
    <path d="M200 176h46a24 24 0 0 1 0 48h-46z" fill="url(#capsula)"/>
    <path d="M200 180v40" fill="none" stroke="#087F5B" stroke-width="4" stroke-linecap="round" opacity="0.45"/>
  </g>

  <path d="M293 276c-39 2-65 22-74 58 40-1 67-20 74-58z" fill="#B9F6D5"/>
  <path d="M228 325c16-14 34-25 56-35" fill="none" stroke="#087F5B" stroke-width="6" stroke-linecap="round"/>
</svg>
